<?xml version="1.0" encoding="UTF-8"?>
<svg version="1.1" xmlns="http://www.w3.org/2000/svg" width="459" height="381">
<path d="M0 0 C9.51042733 -0.08017535 19.02066642 -0.14742807 28.53136635 -0.18435669 C31.17425454 -0.1950841 33.81668763 -0.21385561 36.45953941 -0.23690796 C77.20214563 -0.57877599 113.30499331 8.31037276 143.40206146 37.04681396 C144.00147552 37.58306396 144.60088959 38.11931396 145.21846771 38.67181396 C168.04925707 59.86048158 179.02992276 93.68824519 180.40206146 124.04681396 C180.46393646 125.29204834 180.46393646 125.29204834 180.52706146 126.56243896 C181.30415905 158.22916548 170.97210093 188.96962217 150.40206146 213.04681396 C149.74979584 213.84474365 149.09753021 214.64267334 148.42549896 215.46478271 C127.17540429 240.49532494 94.53782224 254.29986019 62.32833099 257.33660889 C50.538409 258.22604211 38.78138457 258.15793224 26.96456146 258.10931396 C19.84893646 258.08868896 12.73331146 258.06806396 5.40206146 258.04681396 C5.40206146 284.44681396 5.40206146 310.84681396 5.40206146 338.04681396 C-5.48793854 338.04681396 -16.37793854 338.04681396 -27.59793854 338.04681396 C-28.26158388 309.27304788 -28.69736071 280.51514454 -28.66043854 251.73431396 C-28.65958252 251.0622139 -28.6587265 250.39011383 -28.65784454 249.69764709 C-28.64658918 241.48067501 -28.62671903 233.26374282 -28.59793854 225.04681396 C-13.54585647 224.48963081 1.4921947 224.03782865 16.55440521 223.86322021 C19.08248329 223.83073467 21.61055945 223.79809988 24.13863373 223.76531982 C27.93307467 223.71641686 31.72725308 223.67219023 35.52190399 223.64352417 C66.02873487 223.41081347 94.0357482 219.23590003 117.40206146 198.04681396 C118.02210052 197.5195874 118.64213959 196.99236084 119.28096771 196.44915771 C134.89103531 182.28782028 144.43231382 158.42248398 145.52632904 137.69207764 C146.32425642 111.59762912 141.12176079 85.46824852 122.96456146 65.67181396 C121.14153555 63.76108875 119.28103845 61.90413128 117.40206146 60.04681396 C116.3076474 58.93693115 116.3076474 58.93693115 115.19112396 57.80462646 C93.62949692 37.20485639 65.03589411 34.41167741 36.75753021 34.62103271 C34.14745572 34.62565021 31.53737773 34.62855987 28.9272995 34.62989807 C22.65368607 34.63642063 16.38035307 34.66445335 10.10684538 34.7001918 C5.01367914 34.72857176 -0.07944662 34.74732467 -5.17267609 34.75970459 C-6.26501213 34.76236015 -6.26501213 34.76236015 -7.37941557 34.76506937 C-8.85640864 34.76862175 -10.33340174 34.77215837 -11.81039488 34.77567935 C-54.96067588 34.88260947 -98.11166942 35.21204154 -141.25931549 35.69012451 C-145.45421866 35.73632889 -149.649124 35.78232711 -153.84403229 35.82806396 C-155.34013629 35.84446647 -155.34013629 35.84446647 -156.86646461 35.86120033 C-178.44377696 36.09340063 -200.01965115 36.09493354 -221.59793854 36.04681396 C-221.59793854 24.82681396 -221.59793854 13.60681396 -221.59793854 2.04681396 C-194.55766782 1.78233389 -167.51736605 1.52130777 -140.47702122 1.26451111 C-127.91355041 1.14511722 -115.35009236 1.02460674 -102.78665924 0.90130615 C-72.39373581 0.60354734 -42.00074469 0.32705746 -11.60725403 0.09362793 C-7.73815674 0.06379506 -3.8690743 0.03267756 0 0 Z " fill="#29384A" transform="translate(248.59793853759766,20.95318603515625)"/>
<path d="M0 0 C23.1 0 46.2 0 70 0 C64 7 64 7 61 10 C58.69 10 56.38 10 54 10 C54 20.89 54 31.78 54 43 C55.98 43 57.96 43 60 43 C60.1875 45.375 60.1875 45.375 60 48 C59.01 48.66 58.02 49.32 57 50 C56.67 50.99 56.34 51.98 56 53 C55.34 53 54.68 53 54 53 C54.01030746 53.55182953 54.02061493 54.10365906 54.03123474 54.67221069 C55.27072652 121.43718776 56.28591813 188.22223259 56 255 C43.13 255 30.26 255 17 255 C16.73392039 238.11243682 16.47225976 221.22482194 16.21769714 204.33708191 C16.09924629 196.48737356 15.97913228 188.63769865 15.85449219 180.78808594 C15.17923832 138.18833117 14.85210098 95.60531549 15 53 C14.01 53 13.02 53 12 53 C9.39749195 49.62637846 8.63734957 47.23092172 9 43 C10.98 43 12.96 43 15 43 C15 32.11 15 21.22 15 10 C12.69 10 10.38 10 8 10 C5.56640625 8.06640625 5.56640625 8.06640625 3.5625 5.5625 C2.88316406 4.73878906 2.20382813 3.91507812 1.50390625 3.06640625 C0 1 0 1 0 0 Z " fill="#DAB188" transform="translate(110,104)"/>
<path d="M0 0 C0.68520438 -0.00777969 1.37040876 -0.01555939 2.07637691 -0.02357483 C15.31336116 -0.05022235 27.45836185 3.69471475 37.23999023 12.84765625 C47.67720088 24.09760051 51.1567025 36.95436584 50.92749023 52.09765625 C49.52493462 64.82959318 44.67900779 77.44621429 34.92749023 86.09765625 C24.46945989 93.96895071 14.34252642 97.0133851 1.40405273 97.625 C0.57185211 97.66632553 -0.26034851 97.70765106 -1.11776733 97.75022888 C-10.6403382 98.20299376 -20.16705026 98.44715276 -29.69750977 98.66015625 C-30.60418396 98.68133514 -31.51085815 98.70251404 -32.44500732 98.72433472 C-46.98986321 99.0622636 -61.52339359 99.22577958 -76.07250977 99.09765625 C-77.06772741 66.76102334 -77.19308712 34.44793039 -77.07250977 2.09765625 C-68.50010368 1.83383607 -59.92761702 1.57287252 -51.35501957 1.31535339 C-47.37254205 1.19563505 -43.39009681 1.07500729 -39.40771484 0.95214844 C-35.54980934 0.8331658 -31.69183297 0.71677127 -27.83379936 0.60202026 C-26.37692013 0.55826152 -24.92006655 0.51363832 -23.46324348 0.4680481 C-15.64302006 0.22393307 -7.82410857 0.04630127 0 0 Z M-61.07250977 23.09765625 C-28.40250977 23.09765625 4.26749023 23.09765625 37.92749023 23.09765625 C36.93749023 21.11765625 36.93749023 21.11765625 35.92749023 19.09765625 C23.87094508 19.00503476 11.81448437 18.93393101 -0.2423439 18.89040756 C-5.84064538 18.86951997 -11.43870371 18.84118061 -17.03686523 18.79589844 C-22.43795923 18.75248298 -27.83881915 18.72852797 -33.24007416 18.71814728 C-35.30220984 18.71074821 -37.36433251 18.69629978 -39.42636871 18.67473602 C-42.31162853 18.64575947 -45.19591726 18.64169787 -48.08129883 18.64355469 C-48.93653641 18.62917358 -49.79177399 18.61479248 -50.67292786 18.59997559 C-51.46094284 18.60547424 -52.24895782 18.6109729 -53.06085205 18.61663818 C-53.74297886 18.61295101 -54.42510567 18.60926384 -55.12790298 18.60546494 C-57.75009616 19.09259086 -57.75009616 19.09259086 -61.07250977 23.09765625 Z M-62.07250977 31.09765625 C-61.74250977 31.75765625 -61.41250977 32.41765625 -61.07250977 33.09765625 C-60.08250977 33.09765625 -59.09250977 33.09765625 -58.07250977 33.09765625 C-58.15629883 33.99484375 -58.24008789 34.89203125 -58.32641602 35.81640625 C-58.96878814 43.68749757 -59.00373806 51.17918843 -58.39672852 59.0703125 C-57.89715848 66.0687936 -57.73101659 73.0859638 -57.51000977 80.09765625 C-57.48795471 80.78820099 -57.46589966 81.47874573 -57.44317627 82.19021606 C-57.31651502 86.15926977 -57.19306004 90.12841249 -57.07250977 94.09765625 C-53.11250977 94.09765625 -49.15250977 94.09765625 -45.07250977 94.09765625 C-45.08036499 92.02315186 -45.08036499 92.02315186 -45.08837891 89.90673828 C-45.10644096 84.78923181 -45.11794621 79.67172817 -45.12744141 74.55419922 C-45.13247886 72.33674649 -45.13930899 70.11929709 -45.14794922 67.90185547 C-45.16004049 64.7197182 -45.16574386 61.53762474 -45.17016602 58.35546875 C-45.1753273 57.35959747 -45.18048859 56.3637262 -45.18580627 55.337677 C-45.18591957 53.95647171 -45.18591957 53.95647171 -45.18603516 52.54736328 C-45.18825577 51.73461945 -45.19047638 50.92187561 -45.19276428 50.08450317 C-45.07250977 48.09765625 -45.07250977 48.09765625 -44.07250977 46.09765625 C-44.73250977 46.09765625 -45.39250977 46.09765625 -46.07250977 46.09765625 C-46.07250977 41.80765625 -46.07250977 37.51765625 -46.07250977 33.09765625 C-44.75250977 32.76765625 -43.43250977 32.43765625 -42.07250977 32.09765625 C-42.07250977 31.76765625 -42.07250977 31.43765625 -42.07250977 31.09765625 C-48.67250977 31.09765625 -55.27250977 31.09765625 -62.07250977 31.09765625 Z M-33.07250977 31.09765625 C-32.74250977 31.75765625 -32.41250977 32.41765625 -32.07250977 33.09765625 C-31.08250977 33.09765625 -30.09250977 33.09765625 -29.07250977 33.09765625 C-29.14904785 33.97381592 -29.22558594 34.84997559 -29.30444336 35.75268555 C-30.03385396 45.09024081 -30.09847219 54.27630386 -29.77563477 63.63354492 C-29.69698537 65.9254375 -29.63001767 68.21745803 -29.56469727 70.50976562 C-29.33521918 78.07489302 -28.95570999 85.57548481 -28.07250977 93.09765625 C-24.44250977 93.09765625 -20.81250977 93.09765625 -17.07250977 93.09765625 C-17.04745361 91.74494629 -17.02239746 90.39223633 -16.99658203 88.99853516 C-16.90260251 83.99273763 -16.80235891 78.98708195 -16.70019531 73.98144531 C-16.65681058 71.81253369 -16.61513815 69.64358712 -16.57519531 67.47460938 C-16.51757837 64.3618719 -16.45385938 61.2493109 -16.38891602 58.13671875 C-16.37220352 57.16272125 -16.35549103 56.18872375 -16.33827209 55.18521118 C-16.31832687 54.28442841 -16.29838165 53.38364563 -16.27783203 52.45556641 C-16.26228775 51.66058746 -16.24674347 50.86560852 -16.23072815 50.04653931 C-16.07250977 48.09765625 -16.07250977 48.09765625 -15.07250977 46.09765625 C-15.73250977 46.09765625 -16.39250977 46.09765625 -17.07250977 46.09765625 C-17.07250977 41.80765625 -17.07250977 37.51765625 -17.07250977 33.09765625 C-15.75250977 32.76765625 -14.43250977 32.43765625 -13.07250977 32.09765625 C-13.07250977 31.76765625 -13.07250977 31.43765625 -13.07250977 31.09765625 C-19.67250977 31.09765625 -26.27250977 31.09765625 -33.07250977 31.09765625 Z M-4.07250977 31.09765625 C-3.74250977 31.75765625 -3.41250977 32.41765625 -3.07250977 33.09765625 C-2.08250977 33.09765625 -1.09250977 33.09765625 -0.07250977 33.09765625 C-0.07250977 37.38765625 -0.07250977 41.67765625 -0.07250977 46.09765625 C-1.06250977 46.59265625 -1.06250977 46.59265625 -2.07250977 47.09765625 C-1.74250977 47.42765625 -1.41250977 47.75765625 -1.07250977 48.09765625 C-0.92439254 51.16345376 -0.83732339 54.20949979 -0.79125977 57.27734375 C-0.77285034 58.20104767 -0.75444092 59.12475159 -0.73547363 60.07644653 C-0.67652672 63.04178294 -0.62381229 66.00717832 -0.57250977 68.97265625 C-0.50491464 72.86600912 -0.43119023 76.75917552 -0.35375977 80.65234375 C-0.34018433 81.55242157 -0.32660889 82.45249939 -0.31262207 83.37985229 C-0.29590454 84.21726959 -0.27918701 85.05468689 -0.26196289 85.91748047 C-0.24943481 86.65392792 -0.23690674 87.39037537 -0.22399902 88.1491394 C-0.1346631 90.3140996 -0.1346631 90.3140996 0.92749023 93.09765625 C2.57379351 92.95722748 4.21953203 92.81016296 5.86499023 92.66015625 C6.78151367 92.57894531 7.69803711 92.49773437 8.64233398 92.4140625 C10.88908755 92.33720649 10.88908755 92.33720649 11.92749023 91.09765625 C12.04415556 89.75822597 12.09465528 88.41292026 12.11694336 87.06860352 C12.13366089 86.2142421 12.15037842 85.35988068 12.16760254 84.47962952 C12.18117798 83.5504924 12.19475342 82.62135529 12.20874023 81.6640625 C12.22714966 80.71579086 12.24555908 79.76751923 12.26452637 78.79051208 C12.32347696 75.74712525 12.3762016 72.7036813 12.42749023 69.66015625 C12.4949942 65.66133518 12.56869029 61.66269991 12.64624023 57.6640625 C12.65981567 56.73694962 12.67339111 55.80983673 12.68737793 54.85462952 C12.70409546 53.99711594 12.72081299 53.13960236 12.73803711 52.25610352 C12.75682922 51.12145409 12.75682922 51.12145409 12.77600098 49.96388245 C12.92749023 48.09765625 12.92749023 48.09765625 13.92749023 46.09765625 C13.26749023 46.09765625 12.60749023 46.09765625 11.92749023 46.09765625 C11.92749023 41.80765625 11.92749023 37.51765625 11.92749023 33.09765625 C13.24749023 32.76765625 14.56749023 32.43765625 15.92749023 32.09765625 C15.92749023 31.76765625 15.92749023 31.43765625 15.92749023 31.09765625 C9.32749023 31.09765625 2.72749023 31.09765625 -4.07250977 31.09765625 Z M24.92749023 31.09765625 C25.25749023 31.75765625 25.58749023 32.41765625 25.92749023 33.09765625 C26.91749023 33.09765625 27.90749023 33.09765625 28.92749023 33.09765625 C28.92749023 37.38765625 28.92749023 41.67765625 28.92749023 46.09765625 C27.93749023 46.59265625 27.93749023 46.59265625 26.92749023 47.09765625 C27.25749023 47.42765625 27.58749023 47.75765625 27.92749023 48.09765625 C28.0874519 50.68918732 28.1868772 53.25717645 28.24389648 55.8515625 C28.26467758 56.62700912 28.28545868 57.40245575 28.30686951 58.20140076 C28.37244825 60.68755933 28.43128823 63.1738267 28.48999023 65.66015625 C28.53316757 67.34180829 28.57678159 69.02344919 28.62084961 70.70507812 C28.72813802 74.83582496 28.82938156 78.96668161 28.92749023 83.09765625 C34.77657681 79.66765861 38.33305745 76.5136184 40.92749023 70.09765625 C41.92387298 63.5143244 41.89515795 56.83096583 41.83325195 50.18554688 C41.92749023 48.09765625 41.92749023 48.09765625 42.92749023 46.09765625 C42.26749023 46.09765625 41.60749023 46.09765625 40.92749023 46.09765625 C40.92749023 41.80765625 40.92749023 37.51765625 40.92749023 33.09765625 C41.58749023 33.09765625 42.24749023 33.09765625 42.92749023 33.09765625 C42.92749023 32.43765625 42.92749023 31.77765625 42.92749023 31.09765625 C36.98749023 31.09765625 31.04749023 31.09765625 24.92749023 31.09765625 Z " fill="#DAB188" transform="translate(295.072509765625,101.90234375)"/>
</svg>
